<svg data-v-d3f97b9e="" xmlns="http://www.w3.org/2000/svg" viewBox="0 0 529 90"><!----><!----><!----><g data-v-d3f97b9e="" id="fc76a878-25d4-4e01-b2ff-4035ec79ee02" fill="white" transform="matrix(5.410279456668789,0,0,5.410279456668789,98.14739901361239,0.4463474751451244)"><path d="M9.32 9.06L9.32 13.15L9.32 13.15Q8.85 13.33 8.40 13.45L8.40 13.45L8.40 13.45Q7.96 13.57 7.55 13.64L7.55 13.64L7.55 13.64Q7.14 13.72 6.78 13.75L6.78 13.75L6.78 13.75Q6.42 13.78 6.13 13.78L6.13 13.78L6.13 13.78Q5.04 13.78 4.12 13.42L4.12 13.42L4.12 13.42Q3.19 13.06 2.52 12.40L2.52 12.40L2.52 12.40Q1.85 11.75 1.47 10.83L1.47 10.83L1.47 10.83Q1.09 9.92 1.09 8.81L1.09 8.81L1.09 8.81Q1.09 8.03 1.29 7.32L1.29 7.32L1.29 7.32Q1.48 6.62 1.84 6.03L1.84 6.03L1.84 6.03Q2.19 5.44 2.68 4.97L2.68 4.97L2.68 4.97Q3.18 4.50 3.78 4.17L3.78 4.17L3.78 4.17Q4.38 3.84 5.07 3.67L5.07 3.67L5.07 3.67Q5.76 3.49 6.49 3.49L6.49 3.49L6.49 3.49Q6.75 3.49 7.06 3.52L7.06 3.52L7.06 3.52Q7.38 3.54 7.71 3.60L7.71 3.60L7.71 3.60Q8.05 3.65 8.41 3.74L8.41 3.74L8.41 3.74Q8.76 3.83 9.11 3.96L9.11 3.96L8.93 4.91L8.79 4.98L8.79 4.98Q8.39 4.81 8.03 4.69L8.03 4.69L8.03 4.69Q7.66 4.58 7.34 4.52L7.34 4.52L7.34 4.52Q7.02 4.46 6.75 4.43L6.75 4.43L6.75 4.43Q6.48 4.41 6.27 4.41L6.27 4.41L6.27 4.41Q5.33 4.41 4.57 4.75L4.57 4.75L4.57 4.75Q3.81 5.09 3.27 5.67L3.27 5.67L3.27 5.67Q2.73 6.25 2.43 7.02L2.43 7.02L2.43 7.02Q2.14 7.79 2.14 8.66L2.14 8.66L2.14 8.66Q2.14 9.49 2.41 10.25L2.41 10.25L2.41 10.25Q2.69 11.01 3.21 11.59L3.21 11.59L3.21 11.59Q3.74 12.17 4.52 12.52L4.52 12.52L4.52 12.52Q5.29 12.87 6.30 12.87L6.30 12.87L6.30 12.87Q6.77 12.87 7.29 12.78L7.29 12.78L7.29 12.78Q7.82 12.69 8.42 12.51L8.42 12.51L8.42 9.06L9.32 9.06ZM16.06 12.56L16.06 12.56L16.06 12.56Q15.91 12.70 15.67 12.91L15.67 12.91L15.67 12.91Q15.44 13.12 15.14 13.31L15.14 13.31L15.14 13.31Q14.83 13.51 14.48 13.64L14.48 13.64L14.48 13.64Q14.12 13.78 13.72 13.78L13.72 13.78L13.72 13.78Q13.36 13.78 13.00 13.64L13.00 13.64L13.00 13.64Q12.65 13.51 12.36 13.25L12.36 13.25L12.36 13.25Q12.08 12.99 11.90 12.60L11.90 12.60L11.90 12.60Q11.73 12.22 11.73 11.72L11.73 11.72L11.73 11.72Q11.73 11.28 11.90 10.85L11.90 10.85L11.90 10.85Q12.07 10.42 12.48 10.08L12.48 10.08L12.48 10.08Q12.89 9.74 13.58 9.53L13.58 9.53L13.58 9.53Q14.28 9.32 15.35 9.32L15.35 9.32L16.08 9.32L16.08 8.59L16.08 8.59Q16.08 8.26 15.97 8.00L15.97 8.00L15.97 8.00Q15.86 7.74 15.65 7.55L15.65 7.55L15.65 7.55Q15.44 7.36 15.16 7.26L15.16 7.26L15.16 7.26Q14.87 7.16 14.52 7.16L14.52 7.16L14.52 7.16Q14.27 7.16 13.99 7.21L13.99 7.21L13.99 7.21Q13.71 7.26 13.43 7.35L13.43 7.35L13.43 7.35Q13.15 7.44 12.90 7.57L12.90 7.57L12.90 7.57Q12.65 7.70 12.46 7.85L12.46 7.85L12.34 7.78L12.12 6.98L12.12 6.98Q12.51 6.75 12.87 6.61L12.87 6.61L12.87 6.61Q13.23 6.47 13.55 6.40L13.55 6.40L13.55 6.40Q13.88 6.32 14.16 6.29L14.16 6.29L14.16 6.29Q14.44 6.26 14.68 6.26L14.68 6.26L14.68 6.26Q15.32 6.26 15.77 6.42L15.77 6.42L15.77 6.42Q16.23 6.58 16.52 6.86L16.52 6.86L16.52 6.86Q16.80 7.15 16.93 7.55L16.93 7.55L16.93 7.55Q17.06 7.96 17.06 8.45L17.06 8.45L17.06 12.10L17.06 12.10Q17.06 12.17 17.08 12.30L17.08 12.30L17.08 12.30Q17.09 12.43 17.14 12.55L17.14 12.55L17.14 12.55Q17.19 12.67 17.29 12.77L17.29 12.77L17.29 12.77Q17.39 12.86 17.56 12.86L17.56 12.86L17.56 12.86Q17.67 12.86 17.85 12.82L17.85 12.82L17.85 12.82Q18.03 12.78 18.20 12.70L18.20 12.70L18.20 13.33L18.20 13.33Q17.90 13.53 17.64 13.65L17.64 13.65L17.64 13.65Q17.38 13.78 17.10 13.78L17.10 13.78L17.10 13.78Q16.82 13.78 16.64 13.66L16.64 13.66L16.64 13.66Q16.45 13.54 16.32 13.36L16.32 13.36L16.32 13.36Q16.20 13.18 16.14 12.96L16.14 12.96L16.14 12.96Q16.08 12.75 16.06 12.56ZM16.08 11.69L16.08 10.10L15.48 10.10L15.48 10.10Q14.62 10.10 14.08 10.23L14.08 10.23L14.08 10.23Q13.55 10.35 13.25 10.55L13.25 10.55L13.25 10.55Q12.96 10.75 12.86 11.01L12.86 11.01L12.86 11.01Q12.76 11.27 12.76 11.54L12.76 11.54L12.76 11.54Q12.76 11.83 12.84 12.08L12.84 12.08L12.84 12.08Q12.93 12.32 13.09 12.49L13.09 12.49L13.09 12.49Q13.25 12.67 13.49 12.76L13.49 12.76L13.49 12.76Q13.73 12.86 14.03 12.86L14.03 12.86L14.03 12.86Q14.23 12.86 14.46 12.80L14.46 12.80L14.46 12.80Q14.68 12.74 14.93 12.61L14.93 12.61L14.93 12.61Q15.18 12.48 15.47 12.25L15.47 12.25L15.47 12.25Q15.76 12.02 16.08 11.69L16.08 11.69ZM19.85 13.64L19.85 6.40L20.63 6.40L20.77 7.68L20.77 7.68Q21.03 7.43 21.33 7.17L21.33 7.17L21.33 7.17Q21.63 6.92 21.97 6.72L21.97 6.72L21.97 6.72Q22.31 6.51 22.68 6.39L22.68 6.39L22.68 6.39Q23.05 6.26 23.44 6.26L23.44 6.26L23.44 6.26Q24.10 6.26 24.62 6.63L24.62 6.63L24.62 6.63Q25.14 7.01 25.40 7.68L25.40 7.68L25.40 7.68Q25.64 7.43 25.94 7.18L25.94 7.18L25.94 7.18Q26.24 6.92 26.58 6.72L26.58 6.72L26.58 6.72Q26.93 6.51 27.31 6.39L27.31 6.39L27.31 6.39Q27.70 6.26 28.12 6.26L28.12 6.26L28.12 6.26Q28.60 6.26 29.01 6.44L29.01 6.44L29.01 6.44Q29.42 6.62 29.71 6.95L29.71 6.95L29.71 6.95Q30.01 7.27 30.18 7.74L30.18 7.74L30.18 7.74Q30.34 8.21 30.34 8.79L30.34 8.79L30.34 13.64L29.37 13.64L29.37 8.93L29.37 8.93Q29.37 8.50 29.25 8.18L29.25 8.18L29.25 8.18Q29.13 7.85 28.93 7.63L28.93 7.63L28.93 7.63Q28.72 7.41 28.44 7.30L28.44 7.30L28.44 7.30Q28.15 7.18 27.81 7.18L27.81 7.18L27.81 7.18Q27.25 7.18 26.69 7.49L26.69 7.49L26.69 7.49Q26.13 7.80 25.56 8.35L25.56 8.35L25.56 8.35Q25.57 8.46 25.58 8.57L25.58 8.57L25.58 8.57Q25.59 8.67 25.59 8.79L25.59 8.79L25.59 13.64L24.61 13.64L24.61 8.93L24.61 8.93Q24.61 8.50 24.49 8.18L24.49 8.18L24.49 8.18Q24.38 7.85 24.18 7.63L24.18 7.63L24.18 7.63Q23.98 7.41 23.71 7.30L23.71 7.30L23.71 7.30Q23.45 7.18 23.15 7.18L23.15 7.18L23.15 7.18Q22.59 7.18 22.01 7.52L22.01 7.52L22.01 7.52Q21.43 7.86 20.83 8.46L20.83 8.46L20.83 13.64L19.85 13.64ZM38.32 12.43L38.32 13.10L38.32 13.10Q38.10 13.25 37.79 13.38L37.79 13.38L37.79 13.38Q37.49 13.50 37.15 13.59L37.15 13.59L37.15 13.59Q36.81 13.69 36.46 13.73L36.46 13.73L36.46 13.73Q36.11 13.78 35.81 13.78L35.81 13.78L35.81 13.78Q35.16 13.78 34.55 13.55L34.55 13.55L34.55 13.55Q33.93 13.32 33.46 12.87L33.46 12.87L33.46 12.87Q32.98 12.41 32.70 11.72L32.70 11.72L32.70 11.72Q32.41 11.04 32.41 10.12L32.41 10.12L32.41 10.12Q32.41 9.22 32.69 8.50L32.69 8.50L32.69 8.50Q32.97 7.79 33.44 7.29L33.44 7.29L33.44 7.29Q33.91 6.79 34.51 6.53L34.51 6.53L34.51 6.53Q35.11 6.26 35.75 6.26L35.75 6.26L35.75 6.26Q36.32 6.26 36.84 6.47L36.84 6.47L36.84 6.47Q37.35 6.69 37.74 7.08L37.74 7.08L37.74 7.08Q38.13 7.47 38.36 8.04L38.36 8.04L38.36 8.04Q38.59 8.60 38.59 9.30L38.59 9.30L38.59 9.30Q38.59 9.45 38.58 9.68L38.58 9.68L38.58 9.68Q38.56 9.92 38.53 10.16L38.53 10.16L33.43 10.16L33.43 10.16Q33.43 10.75 33.63 11.24L33.63 11.24L33.63 11.24Q33.83 11.73 34.20 12.09L34.20 12.09L34.20 12.09Q34.57 12.46 35.10 12.66L35.10 12.66L35.10 12.66Q35.64 12.86 36.31 12.86L36.31 12.86L36.31 12.86Q36.48 12.86 36.72 12.84L36.72 12.84L36.72 12.84Q36.96 12.82 37.24 12.78L37.24 12.78L37.24 12.78Q37.51 12.73 37.79 12.65L37.79 12.65L37.79 12.65Q38.08 12.56 38.32 12.43L38.32 12.43ZM33.43 9.38L37.63 9.38L37.63 9.38Q37.63 8.83 37.46 8.41L37.46 8.41L37.46 8.41Q37.29 8.00 37.01 7.72L37.01 7.72L37.01 7.72Q36.73 7.44 36.37 7.30L36.37 7.30L36.37 7.30Q36.00 7.16 35.62 7.16L35.62 7.16L35.62 7.16Q35.14 7.16 34.75 7.35L34.75 7.35L34.75 7.35Q34.35 7.54 34.06 7.85L34.06 7.85L34.06 7.85Q33.78 8.17 33.61 8.57L33.61 8.57L33.61 8.57Q33.45 8.97 33.43 9.38L33.43 9.38ZM43.15 6.40L44.26 6.40L45.81 11.57L46.02 12.64L46.16 12.64L46.40 11.59L47.97 6.62L49.05 6.62L50.67 11.57L50.93 12.64L51.06 12.64L51.29 11.59L52.82 6.40L53.83 6.40L51.50 13.64L50.36 13.64L48.88 9.01L48.55 7.88L48.41 7.88L48.08 9.01L46.60 13.64L45.49 13.64L43.15 6.40ZM58.39 13.78L58.39 13.78L58.39 13.78Q57.60 13.78 56.97 13.48L56.97 13.48L56.97 13.48Q56.35 13.19 55.91 12.69L55.91 12.69L55.91 12.69Q55.48 12.19 55.25 11.53L55.25 11.53L55.25 11.53Q55.02 10.88 55.02 10.16L55.02 10.16L55.02 10.16Q55.02 9.34 55.30 8.63L55.30 8.63L55.30 8.63Q55.59 7.92 56.10 7.40L56.10 7.40L56.10 7.40Q56.60 6.87 57.29 6.57L57.29 6.57L57.29 6.57Q57.97 6.26 58.76 6.26L58.76 6.26L58.76 6.26Q59.56 6.26 60.19 6.56L60.19 6.56L60.19 6.56Q60.81 6.86 61.24 7.37L61.24 7.37L61.24 7.37Q61.67 7.88 61.90 8.53L61.90 8.53L61.90 8.53Q62.13 9.19 62.13 9.91L62.13 9.91L62.13 9.91Q62.13 10.72 61.84 11.43L61.84 11.43L61.84 11.43Q61.55 12.13 61.05 12.66L61.05 12.66L61.05 12.66Q60.55 13.18 59.86 13.48L59.86 13.48L59.86 13.48Q59.18 13.78 58.39 13.78ZM58.58 12.89L58.58 12.89L58.58 12.89Q59.15 12.89 59.62 12.65L59.62 12.65L59.62 12.65Q60.08 12.42 60.41 12.03L60.41 12.03L60.41 12.03Q60.74 11.64 60.92 11.13L60.92 11.13L60.92 11.13Q61.10 10.62 61.10 10.07L61.10 10.07L61.10 10.07Q61.10 9.53 60.93 9.01L60.93 9.01L60.93 9.01Q60.76 8.48 60.43 8.07L60.43 8.07L60.43 8.07Q60.11 7.66 59.64 7.41L59.64 7.41L59.64 7.41Q59.17 7.16 58.56 7.16L58.56 7.16L58.56 7.16Q58.00 7.16 57.53 7.39L57.53 7.39L57.53 7.39Q57.07 7.62 56.74 8.00L56.74 8.00L56.74 8.00Q56.40 8.39 56.22 8.91L56.22 8.91L56.22 8.91Q56.04 9.42 56.04 9.98L56.04 9.98L56.04 9.98Q56.04 10.51 56.21 11.03L56.21 11.03L56.21 11.03Q56.38 11.55 56.71 11.97L56.71 11.97L56.71 11.97Q57.03 12.38 57.50 12.63L57.50 12.63L57.50 12.63Q57.98 12.89 58.58 12.89ZM64.19 13.64L64.19 6.40L64.97 6.40L65.11 8.50L65.11 8.50Q65.36 8.01 65.63 7.60L65.63 7.60L65.63 7.60Q65.89 7.19 66.20 6.89L66.20 6.89L66.20 6.89Q66.50 6.60 66.85 6.43L66.85 6.43L66.85 6.43Q67.20 6.26 67.63 6.26L67.63 6.26L67.63 6.26Q67.81 6.26 67.96 6.30L67.96 6.30L67.96 6.30Q68.11 6.34 68.28 6.43L68.28 6.43L68.18 7.32L68.18 7.32Q68.09 7.29 67.94 7.27L67.94 7.27L67.94 7.27Q67.79 7.26 67.67 7.26L67.67 7.26L67.67 7.26Q67.35 7.26 67.04 7.38L67.04 7.38L67.04 7.38Q66.73 7.49 66.41 7.76L66.41 7.76L66.41 7.76Q66.10 8.03 65.79 8.46L65.79 8.46L65.79 8.46Q65.48 8.89 65.17 9.53L65.17 9.53L65.17 13.64L64.19 13.64ZM69.92 13.64L69.92 2.69L70.90 2.69L70.90 13.64L69.92 13.64ZM78.59 11.61L78.59 7.52L78.59 7.52Q78.02 7.28 77.57 7.22L77.57 7.22L77.57 7.22Q77.13 7.16 76.88 7.16L76.88 7.16L76.88 7.16Q76.20 7.16 75.66 7.37L75.66 7.37L75.66 7.37Q75.13 7.57 74.75 7.96L74.75 7.96L74.75 7.96Q74.38 8.34 74.18 8.87L74.18 8.87L74.18 8.87Q73.99 9.41 73.99 10.05L73.99 10.05L73.99 10.05Q73.99 10.62 74.14 11.13L74.14 11.13L74.14 11.13Q74.29 11.64 74.58 12.02L74.58 12.02L74.58 12.02Q74.87 12.41 75.29 12.63L75.29 12.63L75.29 12.63Q75.70 12.86 76.22 12.86L76.22 12.86L76.22 12.86Q76.84 12.86 77.43 12.53L77.43 12.53L77.43 12.53Q78.01 12.21 78.59 11.61L78.59 11.61ZM78.59 6.48L78.59 2.69L79.57 2.69L79.57 13.64L78.80 13.64L78.65 12.37L78.65 12.37Q78.42 12.58 78.13 12.82L78.13 12.82L78.13 12.82Q77.84 13.07 77.49 13.28L77.49 13.28L77.49 13.28Q77.14 13.49 76.72 13.64L76.72 13.64L76.72 13.64Q76.31 13.78 75.85 13.78L75.85 13.78L75.85 13.78Q75.19 13.78 74.66 13.48L74.66 13.48L74.66 13.48Q74.12 13.19 73.75 12.69L73.75 12.69L73.75 12.69Q73.37 12.20 73.17 11.56L73.17 11.56L73.17 11.56Q72.96 10.92 72.96 10.23L72.96 10.23L72.96 10.23Q72.96 9.36 73.28 8.63L73.28 8.63L73.28 8.63Q73.60 7.90 74.15 7.38L74.15 7.38L74.15 7.38Q74.70 6.85 75.44 6.56L75.44 6.56L75.44 6.56Q76.19 6.26 77.05 6.26L77.05 6.26L77.05 6.26Q77.51 6.26 77.90 6.33L77.90 6.33L77.90 6.33Q78.29 6.41 78.59 6.48L78.59 6.48Z"></path></g><!----><g data-v-d3f97b9e="" id="ba9bce8d-5ae2-456c-a9d4-da9b3fbcb9fc" transform="matrix(1.4285714285714286,0,0,1.4285714285714286,0.977700914655415,0)" stroke="none" fill="white"><defs><style></style></defs><path d="M31.5 0C14.131 0 0 14.131 0 31.5S14.131 63 31.5 63c10.605 0 20.423-5.292 26.281-14.156.456-.69.252-1.636-.437-2.094L34.53 31.562l23.563-14.03c.71-.424.952-1.352.531-2.063C52.975 5.915 42.581 0 31.5 0zm0 3c9.527 0 18.464 4.85 23.719 12.75L30.937 30.188a1.489 1.489 0 0 0-.718 1.25 1.48 1.48 0 0 0 .656 1.28l23.531 15.688C49.034 55.687 40.596 60 31.5 60 15.785 60 3 47.215 3 31.5S15.785 3 31.5 3zm-2.906 7.344a6.292 6.292 0 0 0-6.282 6.281c0 3.46 2.82 6.281 6.282 6.281 3.46 0 6.281-2.821 6.281-6.281 0-3.461-2.821-6.281-6.281-6.281zm0 3a3.289 3.289 0 0 1 3.281 3.281 3.29 3.29 0 0 1-3.281 3.281 3.289 3.289 0 0 1-3.282-3.281 3.288 3.288 0 0 1 3.282-3.281z"></path></g><!----></svg>